<svg width="28" height="28" viewBox="0 0 28 28" fill="none" xmlns="http://www.w3.org/2000/svg">
<circle cx="19.5" cy="14" r="1.5" fill="#06090B"/>
<path fill-rule="evenodd" clip-rule="evenodd" d="M14 28C21.732 28 28 21.732 28 14C28 6.26801 21.732 0 14 0C6.26801 0 0 6.26801 0 14C0 21.732 6.26801 28 14 28ZM14 26.75C21.0416 26.75 26.75 21.0416 26.75 14C26.75 6.95837 21.0416 1.25 14 1.25C6.95837 1.25 1.25 6.95837 1.25 14C1.25 21.0416 6.95837 26.75 14 26.75Z" fill="#06090B"/>
<path fill-rule="evenodd" clip-rule="evenodd" d="M14 14C14 10.9624 11.5376 8.5 8.5 8.5C5.46243 8.5 3 10.9624 3 14C3 20.0751 7.92487 25 14 25C20.0751 25 25 20.0751 25 14C25 17.0376 22.5376 19.5 19.5 19.5C16.4624 19.5 14 17.0376 14 14ZM8.5 15.5C9.32843 15.5 10 14.8284 10 14C10 13.1716 9.32843 12.5 8.5 12.5C7.67157 12.5 7 13.1716 7 14C7 14.8284 7.67157 15.5 8.5 15.5Z" fill="#06090B"/>
</svg>
